<svg width="192" height="161" viewBox="43 0 192 161" xmlns="http://www.w3.org/2000/svg"><g fill="none" fill-rule="evenodd"><path d="M181.213 102.272c2.248 8.506-8.772 14.461-4.828 23.377 8.496-2.163 23.754 1.165 23.516 12.372-.251 11.858-12.824 18.057-23.588 17.303-11.878-.833-23.247-4.974-34.471-10.13l-2.294 3.037c.579.233 1.158.469 1.738.7 21.881 8.728 55.972 21.204 69.465-2.489 3.337-5.86 4.069-14.243 1.474-21.135-4.874-12.946-18.813-19.257-31.012-23.035zm-29.794-6.145l-.25.017-1.397.096-5.331.336-3.374.213-1.681.098c-2.684.156-5.416.315-8.147.467 1.318 13.142-.224 27.042-6.566 36.807-1.126 2.291-4.713 5.551-5.209 6 .021.007.041.015.062.023-3.846 3.382-8.726 5.725-14.817 6.593-6.815.971-14.196.347-21.169-1.29-4.068-.955-13.37-3.109-14.756-8.245-.681-2.524 2.382-4.974 4.67-6.024 7.563-3.474 18.048-.27 26.096 2.064 5.7 1.653 11.335 3.621 16.934 5.738l3.905-4.364c-11.72-5.784-23.533-11.078-35.857-13.246-12.303-2.164-33.699 4.954-25.155 20.633 6.549 12.02 21.806 15.098 32.669 16.971 13.368 2.304 27.142 1.319 37.824-5.844 2.591-1.738 4.915-3.762 6.995-6.019.002.001.004.002.005.003.67-.765 1.609-1.864 2.575-3.075-.001-.001-.002-.001-.003-.002 9.558-12.554 12.812-30.717 11.977-47.95zm66.736-77.175c-6.549-12.02-21.806-15.098-32.669-16.97-13.368-2.304-27.142-1.32-37.824 5.843-1.398.938-2.716 1.962-3.963 3.058 6.289 2.285 15.141 5.516 18.614 6.851 3.012-1.728 6.497-2.944 10.51-3.516 6.815-.97 14.196-.346 21.169 1.29 4.068.955 13.37 3.109 14.756 8.246.681 2.523-2.382 4.973-4.67 6.024-7.563 3.473-18.048.27-26.096-2.064-6.733-1.953-13.376-4.343-19.976-6.903.005-.004.01-.008.015-.013-2.644-1.016-15.437-6.213-17.328-6.981-.008.009-.017.018-.026.027-1.473-.597-2.947-1.192-4.421-1.78-21.881-8.728-55.972-21.204-69.465 2.489-3.338 5.86-4.069 14.243-1.474 21.135 4.874 12.946 18.813 19.258 31.012 23.035-2.248-8.506 8.772-14.46 4.828-23.377-8.496 2.163-23.754-1.164-23.516-12.372.251-11.858 12.824-18.057 23.588-17.302 12.725.891 24.867 5.579 36.871 11.246-.047.062-.091.128-.138.19 1.422.703 10.495 5.181 16.168 7.914.033-.044.064-.091.097-.135 12.682 6.334 25.433 12.35 38.783 14.698 12.303 2.165 33.699-4.953 25.155-20.633zm-89.867 62.883c.013.043.024.087.036.131 3.388-.223 6.792-.434 10.124-.639l1.689-.103 4.633-.264 4.077-.231.705-.036c-.1-.513-.201-1.026-.308-1.533-4.54-15.824-5.284-36.74 2.56-50.591l-16.255-7.934c-10.436 16.875-11.439 41.475-7.261 61.2z" fill="#020000"/><path d="M156.591 46.978c2.246-1.76 4.177-3.337 5.771-4.63 1.599-1.284 2.83-2.333 3.68-3.032.843-.71 1.292-1.089 1.292-1.089.308-.26.381-.76.153-1.182-.253-.468-.78-.662-1.176-.436 0 0-.505.29-1.454.833-.94.555-2.335 1.345-4.079 2.401-1.749 1.048-3.877 2.312-6.287 3.812-1.209.744-2.495 1.537-3.851 2.372-.22.138-.446.28-.67.42-.25 1.963-.41 4.002-.483 6.103 1.225-.953 2.411-1.875 3.538-2.751 1.256-.993 2.447-1.935 3.566-2.821zM107.936 82.995c3.706-2.603 7.412-5.203 11.034-7.807 1.392-.992 2.769-1.983 4.137-2.971-.298-2.623-.501-5.257-.61-7.885-2.395 1.612-4.822 3.257-7.268 4.939-3.791 2.584-7.613 5.257-11.437 7.925-1.906 1.343-3.812 2.687-5.711 4.026-1.386.989-2.761 1.97-4.136 2.951 4.226-.377 8.171-.712 11.965-1.017.659-.052 1.337-.106 2.026-.161zM77.044 99.788l-4.007.049-.519.006c-.38.285-.767.574-1.142.857-3.211 2.413-6.232 4.717-9.012 6.859-2.781 2.138-5.306 4.137-7.547 5.905-2.248 1.755-4.178 3.335-5.775 4.622-1.602 1.281-2.833 2.329-3.685 3.025-.844.708-1.294 1.086-1.294 1.086-.31.26-.383.762-.153 1.185.254.466.78.66 1.175.432 0 0 .505-.291 1.452-.836.939-.558 2.334-1.349 4.075-2.408 1.745-1.054 3.875-2.316 6.283-3.82 2.415-1.492 5.143-3.17 8.091-5.044 2.951-1.87 6.138-3.912 9.494-6.096 2.895-1.885 5.925-3.874 9.032-5.944-2.19.047-4.352.088-6.468.122zM181.302 89.859l-3.143-2.366-2.603-1.961-3.062-2.33c-2.095.081-4.206.169-6.344.267-2.801.131-5.635.263-8.493.396-2.856.147-5.735.295-8.626.443-2.889.164-5.79.329-8.691.494-5.8.357-11.6.707-17.306 1.117-5.707.387-11.321.822-16.752 1.255-5.431.436-10.679.896-15.655 1.35-4.974.462-9.676.926-14.015 1.377-2.169.235-4.247.459-6.224.673-1.976.229-3.85.446-5.611.65-3.524.393-6.592.796-9.119 1.119-2.528.311-4.511.611-5.865.792-1.352.199-2.073.304-2.073.304-.495.072-.878.531-.883 1.096-.006.625.451 1.144 1.022 1.159 0 0 .729.019 2.095.054 1.366.019 3.371.079 5.919.087 2.548.018 5.643.052 9.189.022 1.774-.008 3.661-.016 5.65-.025 1.989-.024 4.079-.049 6.261-.076 4.362-.07 9.086-.171 14.081-.306 4.995-.142 10.26-.313 15.705-.528 5.445-.219 11.07-.457 16.783-.755 5.714-.273 11.515-.618 17.316-.956 2.9-.183 5.8-.366 8.688-.548 2.888-.197 5.764-.394 8.617-.589 2.853-.21 5.683-.417 8.479-.622 2.796-.206 5.557-.421 8.272-.649 2.333-.187 4.624-.379 6.882-.574-.166-.124-.326-.244-.494-.37zM233.339 82.319s-.728-.017-2.095-.05c-1.365-.014-3.37-.074-5.918-.077-2.547-.01-5.643-.047-9.188-.01-3.547.019-7.548.034-11.91.111-2.367.038-4.844.086-7.41.143 2.206 1.791 4.475 3.653 6.972 5.72.265-.027.532-.054.794-.082 4.339-.444 8.313-.907 11.836-1.311 3.524-.387 6.592-.793 9.12-1.108 2.528-.306 4.511-.605 5.865-.782 1.352-.196 2.073-.3 2.073-.3.497-.071.881-.531.886-1.098.005-.625-.454-1.143-1.025-1.156zM107.533 24.317c.855.779 2.091 1.947 3.701 3.381 1.604 1.443 3.545 3.203 5.81 5.17 1.128.989 2.328 2.041 3.594 3.151 1.228 1.059 2.52 2.172 3.863 3.331.414-1.894.889-3.738 1.42-5.532-.848-.59-1.677-1.167-2.478-1.724-1.383-.946-2.695-1.842-3.928-2.685-2.458-1.696-4.633-3.13-6.419-4.317-1.78-1.197-3.208-2.095-4.169-2.725-.971-.617-1.488-.947-1.488-.947-.355-.226-.86-.114-1.187.285-.362.442-.369 1.068-.016 1.398 0 0 .451.423 1.297 1.214zM230.123 116.397c-.857-.776-2.093-1.943-3.706-3.374-1.608-1.436-3.548-3.198-5.816-5.161-2.258-1.975-4.803-4.209-7.61-6.6-2.805-2.396-5.856-4.975-9.1-7.677-3.245-2.702-6.677-5.537-10.252-8.436-1.781-1.457-3.601-2.926-5.45-4.405-1.849-1.478-3.721-2.974-5.608-4.482-1.894-1.498-3.803-3.007-5.719-4.522-1.925-1.504-3.858-3.014-5.79-4.523-3.88-2.999-7.756-6.003-11.606-8.911-1.814-1.383-3.62-2.744-5.41-4.087l-.391.304-1.932 1.502c-.738.569-1.49 1.147-2.248 1.727.027.781.068 1.566.117 2.354 1.8 1.446 3.617 2.898 5.465 4.357 3.777 3.01 7.651 6.018 11.52 9.031 1.942 1.496 3.884 2.993 5.818 4.483 1.943 1.479 3.878 2.952 5.798 4.413 1.928 1.451 3.839 2.891 5.729 4.313 1.889 1.421 3.762 2.817 5.613 4.177 3.69 2.737 7.281 5.35 10.695 7.815 3.415 2.464 6.66 4.77 9.667 6.883 3.004 2.117 5.787 4.016 8.251 5.705 2.454 1.7 4.631 3.132 6.412 4.326 1.778 1.199 3.205 2.099 4.165 2.732.968.619 1.485.95 1.485.95.356.228.862.115 1.19-.286.361-.442.366-1.068.013-1.397 0 0-.452-.421-1.3-1.211z" fill="#030000"/></g></svg>